<!DOCTYPE svg PUBLIC "-//W3C//DTD SVG 1.1//EN" "http://www.w3.org/Graphics/SVG/1.1/DTD/svg11.dtd">
<!-- Uploaded to: SVG Repo, www.svgrepo.com, Transformed by: SVG Repo Mixer Tools -->
<svg fill="#000000" height="64px" width="64px" version="1.1" id="Capa_1" xmlns="http://www.w3.org/2000/svg" xmlns:xlink="http://www.w3.org/1999/xlink" viewBox="0 0 372.466 372.466" xml:space="preserve">
<g id="SVGRepo_bgCarrier" stroke-width="0"/>
<g id="SVGRepo_tracerCarrier" stroke-linecap="round" stroke-linejoin="round"/>
<g id="SVGRepo_iconCarrier"> <g> <path d="M273.667,265.8H195c-2.209,0-4,1.791-4,4c0,2.209,1.791,4,4,4h78.667c2.209,0,4-1.791,4-4 C277.667,267.591,275.875,265.8,273.667,265.8z"/> <path d="M273.667,247.233H195c-2.209,0-4,1.791-4,4c0,2.209,1.791,4,4,4h78.667c2.209,0,4-1.791,4-4 C277.667,249.024,275.875,247.233,273.667,247.233z"/> <path d="M355,66.351v-3.738c0-10.135-8.246-18.38-18.38-18.38H133.38c-10.135,0-18.38,8.245-18.38,18.38v3.779 c-9.676,1.178-17.2,9.428-17.2,19.417v22.473v51.903c0,7.746,6.302,14.048,14.048,14.048H115v104.03 c0,11.281,6.267,21.122,15.5,26.235v19.735c0,2.209,1.791,4,4,4h35c2.209,0,4-1.791,4-4v-16h123v16c0,2.209,1.791,4,4,4h35 c2.209,0,4-1.791,4-4v-19.736c9.233-5.113,15.5-14.954,15.5-26.235v-104.03h3.418c7.746,0,14.048-6.302,14.048-14.048v-51.903 V85.809C372.466,75.727,364.805,67.407,355,66.351z M364.466,85.809v9.812c-1.835-0.88-3.881-1.388-6.048-1.388H355V74.435 C360.378,75.43,364.466,80.147,364.466,85.809z M133.38,52.233h203.24c5.724,0,10.38,4.656,10.38,10.38v7.62H123v-7.62 C123,56.89,127.656,52.233,133.38,52.233z M325.5,272.233v-17H347v17H325.5z M296,272.233v-17h21.5v17H296z M292,247.233 c-2.209,0-4,1.791-4,4v25c0,4.411-3.589,8-8,8h-90c-4.411,0-8-3.589-8-8v-25c0-2.209-1.791-4-4-4h-55v-18h224v18H292z M123,255.233 h21.5v17H123V255.233z M152.5,255.233H174v17h-21.5V255.233z M290.281,78.233l-53.033,143h-67.034l53.033-143H290.281z M245.781,221.233l53.033-143h13.42l-53.033,143H245.781z M115,74.48v19.753h-3.152c-2.167,0-4.214,0.508-6.048,1.388v-9.813 C105.8,80.24,109.753,75.58,115,74.48z M105.8,160.185v-51.903c0-3.335,2.713-6.048,6.048-6.048h15.903 c3.335,0,6.048,2.713,6.048,6.048v51.903c0,3.335-2.713,6.048-6.048,6.048h-15.903C108.513,166.233,105.8,163.52,105.8,160.185z M127.751,174.233c7.746,0,14.048-6.302,14.048-14.048v-51.903c0-7.746-6.302-14.048-14.048-14.048H123v-16h91.715l-53.033,143H123 v-47H127.751z M165.5,320.233h-27v-12.711c2.085,0.461,4.248,0.711,6.47,0.711h20.53V320.233z M331.5,320.233h-27v-12h20.53 c2.222,0,4.385-0.25,6.47-0.711V320.233z M325.03,300.233H144.97c-11.45,0-20.877-8.806-21.877-20h51.434 c1.783,6.889,8.035,12,15.474,12h90c7.439,0,13.69-5.111,15.473-12h51.434C345.907,291.427,336.48,300.233,325.03,300.233z M347,221.233h-79.266l53.033-143H347v16h-4.485c-7.746,0-14.048,6.302-14.048,14.048v51.903c0,7.746,6.302,14.048,14.048,14.048 H347V221.233z M364.466,160.185c0,3.335-2.713,6.048-6.048,6.048h-15.904c-3.335,0-6.048-2.713-6.048-6.048v-51.903 c0-3.335,2.713-6.048,6.048-6.048h15.904c3.335,0,6.048,2.713,6.048,6.048V160.185z"/> <path d="M62,112.033H4c-2.209,0-4,1.791-4,4v101c0,2.209,1.791,4,4,4h25v103.2c0,2.209,1.791,4,4,4c2.209,0,4-1.791,4-4v-103.2h25 c2.209,0,4-1.791,4-4v-101C66,113.824,64.209,112.033,62,112.033z M58,213.033H8v-93h50V213.033z"/> <path d="M20,139.433h26c2.209,0,4-1.791,4-4c0-2.209-1.791-4-4-4H20c-2.209,0-4,1.791-4,4C16,137.642,17.791,139.433,20,139.433z"/> <path d="M20,160.166h26c2.209,0,4-1.791,4-4c0-2.209-1.791-4-4-4H20c-2.209,0-4,1.791-4,4C16,158.375,17.791,160.166,20,160.166z"/> <path d="M20,180.9h26c2.209,0,4-1.791,4-4c0-2.209-1.791-4-4-4H20c-2.209,0-4,1.791-4,4C16,179.109,17.791,180.9,20,180.9z"/> <path d="M20,201.633h26c2.209,0,4-1.791,4-4c0-2.209-1.791-4-4-4H20c-2.209,0-4,1.791-4,4C16,199.842,17.791,201.633,20,201.633z"/> </g> </g>
</svg>