<!DOCTYPE svg PUBLIC "-//W3C//DTD SVG 1.1//EN" "http://www.w3.org/Graphics/SVG/1.1/DTD/svg11.dtd">
<!-- Uploaded to: SVG Repo, www.svgrepo.com, Transformed by: SVG Repo Mixer Tools -->
<svg fill="#000000" height="64px" width="64px" version="1.1" id="Layer_1" xmlns="http://www.w3.org/2000/svg" xmlns:xlink="http://www.w3.org/1999/xlink" viewBox="0 0 512.853 512.853" xml:space="preserve">
<g id="SVGRepo_bgCarrier" stroke-width="0"/>
<g id="SVGRepo_tracerCarrier" stroke-linecap="round" stroke-linejoin="round"/>
<g id="SVGRepo_iconCarrier"> <g transform="translate(1 1)"> <g> <g> <path d="M400.067,298.093c-23.893,0-42.667,18.773-42.667,42.667c0,23.893,18.773,42.667,42.667,42.667 c23.893,0,42.667-18.773,42.667-42.667C442.733,316.867,423.96,298.093,400.067,298.093z M400.067,366.36 c-14.507,0-25.6-11.093-25.6-25.6c0-14.507,11.093-25.6,25.6-25.6c14.507,0,25.6,11.093,25.6,25.6 C425.667,355.267,414.573,366.36,400.067,366.36z"/> <path d="M328.387,212.76c11.093,0,20.48-9.387,20.48-20.48v-78.507c0-11.093-9.387-20.48-20.48-20.48h-61.44 c-11.093,0-20.48,9.387-20.48,20.48v78.507c0,11.093,9.387,20.48,20.48,20.48H328.387z M263.533,192.28v-78.507 c0-1.707,1.707-3.413,3.413-3.413h61.44c1.707,0,3.413,1.707,3.413,3.413v78.507c0,1.707-1.707,3.413-3.413,3.413h-61.44 C265.24,195.693,263.533,193.987,263.533,192.28z"/> <path d="M200.387,93.293h-61.44c-11.093,0-20.48,9.387-20.48,20.48v78.507c0,11.093,9.387,20.48,20.48,20.48h61.44 c11.093,0,20.48-9.387,20.48-20.48v-78.507C220.867,102.68,211.48,93.293,200.387,93.293z M203.8,192.28 c0,1.707-1.707,3.413-3.413,3.413h-61.44c-1.707,0-3.413-1.707-3.413-3.413v-78.507c0-1.707,1.707-3.413,3.413-3.413h61.44 c1.707,0,3.413,1.707,3.413,3.413V192.28z"/> <path d="M101.4,340.76c-9.387,0-17.067,7.68-17.067,17.067s7.68,17.067,17.067,17.067c9.387,0,17.067-7.68,17.067-17.067 S110.787,340.76,101.4,340.76z"/> <path d="M511.853,170.093c0-7.68-2.56-14.507-7.68-19.627l-74.24-81.92c-5.973-5.973-13.653-9.387-21.333-9.387h-384 C10.947,59.16-1,70.253-1,84.76v8.533V212.76v128c0,13.653,11.093,25.6,25.6,25.6h17.669c4.075,29.155,28.753,51.2,59.131,51.2 c30.378,0,55.056-22.045,59.131-51.2h152.092c2.727,1.903,4.856,4.637,6.378,7.68c2.56,5.12,1.707,11.093-1.707,16.213 l-6.827,10.24c-2.56,3.413-1.707,8.533,0.853,11.093l17.067,17.067c3.413,2.56,7.68,3.413,11.093,0.853l10.24-7.68 c5.12-3.413,11.093-4.267,16.213-1.707s9.387,6.827,10.24,12.8l2.56,11.947c0.853,4.267,4.267,6.827,8.533,6.827h23.893 c4.267,0,7.68-3.413,11.947-7.68l1.707-9.387c0.853-5.973,5.12-10.24,10.24-12.8s11.093-1.707,16.213,1.707l7.68,5.12 c3.413,2.56,7.68,1.707,11.093-0.853l17.067-17.067c2.56-3.413,3.413-7.68,0.853-11.093l-6.827-10.24 c-3.413-5.12-4.267-11.093-1.707-16.213c2.56-5.973,6.827-9.387,12.8-10.24l12.8-1.707c3.413-0.853,6.827-4.267,6.827-8.533 v-21.332c0,0,0-0.001,0-0.001V170.093z M493.933,169.24v26.453h-102.4V110.36h52.053l46.933,51.2 C493.08,163.267,493.933,166.68,493.933,169.24z M16.067,110.36h58.027c0.853,0,1.707,0.853,1.707,1.707v81.92 c0,0.853-0.853,1.707-1.707,1.707H16.067V110.36z M16.067,340.76v-59.733H255c5.12,0,8.533-3.413,8.533-8.533 s-3.413-8.533-8.533-8.533H16.067v-17.067h204.8c5.12,0,8.533-3.413,8.533-8.533s-3.413-8.533-8.533-8.533h-204.8V212.76h58.027 c10.24,0,18.773-8.533,18.773-18.773v-81.92c0-10.24-8.533-18.773-18.773-18.773H16.067V84.76c0-4.267,4.267-8.533,8.533-8.533 h384c2.56,0,5.973,1.707,8.533,3.413l12.942,13.653h-41.102c-7.68,0-14.507,6.827-14.507,14.507v90.453 c0,7.68,6.827,14.507,14.507,14.507H498.2v106.057l-5.12-1.097c-2.245-0.321-4.248-1.124-6.011-2.272 c-1.722-1.619-3.133-3.703-4.229-6.261c-2.56-5.973-1.707-11.093,1.707-16.213l7.68-10.24c2.56-3.413,1.707-8.533-0.853-11.093 l-17.067-17.067c-0.7-0.525-1.436-0.973-2.193-1.339l-0.367-0.367c-3.413-2.56-7.68-3.413-11.093-0.853l-10.24,6.827 c-5.12,3.413-11.093,4.267-16.213,1.707c-0.716-0.307-1.393-0.64-2.035-0.996c-3.156-2.516-5.042-5.879-5.645-10.098l-1.707-12.8 c-0.618-2.471-2.581-4.935-5.234-6.111c-1.534-1.437-3.571-2.422-5.859-2.422h-23.893c-4.267,0-7.68,2.56-8.533,6.827 l-3.413,16.213c-0.853,5.973-5.12,10.24-10.24,12.8c-3.908,1.117-7.45,1.494-10.867,0.672c-0.932-0.404-1.86-0.907-2.787-1.525 l-13.653-9.387c-1.045-0.784-2.25-1.244-3.493-1.437c-3.358-1.805-7.824-0.899-10.16,1.437l-17.067,17.067 c-2.56,2.56-3.413,7.68-0.853,11.093l7.68,10.24c3.413,5.12,4.267,11.093,1.707,16.213c-2.56,5.12-6.827,9.387-12.8,10.24 l-11.947,2.56c-4.267,0.853-6.827,4.267-6.827,8.533v19.627H160.531c-4.075-29.155-28.753-51.2-59.131-51.2 c-0.138,0-0.274,0.009-0.412,0.01c-0.148-0.001-0.294-0.01-0.441-0.01c-29.867,0-54.613,22.187-58.88,51.2H24.6 C20.333,349.293,16.067,345.88,16.067,340.76z M101.4,400.493c-23.893,0-42.667-18.773-42.667-42.667 c0-23.893,18.773-42.667,42.667-42.667c23.893,0,42.667,18.773,42.667,42.667C144.067,381.72,125.293,400.493,101.4,400.493z M490.52,347.587l-5.973,0.853c-11.093,1.707-21.333,8.533-25.6,19.627c-4.267,10.24-3.413,23.04,3.413,32.427l4.267,4.267 l-6.827,6.827l-1.707-0.853c-10.24-7.68-22.187-8.533-33.28-4.267c-11.093,5.12-18.773,14.507-20.48,26.453v1.707h-9.387 l-1.707-5.973c-1.707-11.093-9.387-20.48-20.48-24.747s-23.04-2.56-32.427,4.267l-4.267,3.413l-6.827-6.827l2.56-4.267 c6.827-9.387,7.68-21.333,3.413-32.427c-2.888-6.932-8.129-12.684-14.917-16.21c-0.861-0.679-1.869-1.256-3.003-1.71 c-1.707-0.853-3.413-1.707-5.12-1.707l-5.973-0.853V338.2l5.973-1.707c11.093-1.707,20.48-9.387,24.747-20.48 s2.56-23.04-4.267-32.427l-3.413-4.267l5.803-5.803l6.144,4.096c5.959,4.334,12.949,6.252,19.88,5.989 c4.839,0.195,9.714-0.684,14.253-2.576c11.093-4.267,17.92-13.653,20.48-24.747l1.707-9.387h6.827l0.853,6.827 c1.707,11.093,8.533,21.333,19.627,25.6c4.526,1.886,9.552,2.767,14.563,2.579c7.166,0.252,14.479-1.669,20.424-5.992 l2.771-2.216l5.763,6.483l-3.413,4.267c-6.827,9.387-8.533,21.333-4.267,32.427c4.267,10.24,13.653,17.92,24.747,20.48 l5.12,0.853V347.587z"/> </g> </g> </g> </g>
</svg>