<svg width="48" height="43" viewBox="0 0 48 43" fill="none" xmlns="http://www.w3.org/2000/svg">
<path d="M7.11407 3.77827V39.271H27.3772V3.77827H7.11407ZM5.42547 0.551666H29.0658C29.5137 0.551666 29.9432 0.721639 30.2598 1.02419C30.5765 1.32674 30.7544 1.7371 30.7544 2.16497V40.8843C30.7544 41.3121 30.5765 41.7225 30.2598 42.025C29.9432 42.3276 29.5137 42.4976 29.0658 42.4976H5.42547C4.97763 42.4976 4.54813 42.3276 4.23146 42.025C3.91478 41.7225 3.73688 41.3121 3.73688 40.8843V2.16497C3.73688 1.7371 3.91478 1.32674 4.23146 1.02419C4.54813 0.721639 4.97763 0.551666 5.42547 0.551666Z" fill="#2CA0F3"/>
<path d="M10.4913 10.2315H24V13.4581H10.4913V10.2315ZM10.4913 19.9113H24V23.1379H10.4913V19.9113ZM10.4913 29.5911H24V32.8177H10.4913V29.5911ZM30.7544 23.1379H37.5088V26.3645H30.7544V23.1379ZM30.7544 29.5911H37.5088V32.8177H30.7544V29.5911ZM0.35968 39.271H47.6404V42.4976H0.35968V39.271Z" fill="#2CA0F3"/>
<path d="M30.7544 16.6847V39.271H40.886V16.6847H30.7544ZM29.0658 13.4581H42.5746C43.0224 13.4581 43.4519 13.6281 43.7686 13.9306C44.0853 14.2332 44.2632 14.6435 44.2632 15.0714V40.8843C44.2632 41.3121 44.0853 41.7225 43.7686 42.025C43.4519 42.3276 43.0224 42.4976 42.5746 42.4976H29.0658C28.618 42.4976 28.1884 42.3276 27.8718 42.025C27.5551 41.7225 27.3772 41.3121 27.3772 40.8843V15.0714C27.3772 14.6435 27.5551 14.2332 27.8718 13.9306C28.1884 13.6281 28.618 13.4581 29.0658 13.4581Z" fill="#2CA0F3"/>
</svg>
