<svg width="56" height="52" viewBox="0 0 56 52" fill="none" xmlns="http://www.w3.org/2000/svg">
<path d="M23.4971 4.30215H7.73687C7.13975 4.30215 6.56708 4.52878 6.14485 4.93219C5.72262 5.33559 5.48541 5.88273 5.48541 6.45323V21.5107C5.48541 22.0812 5.72262 22.6284 6.14485 23.0318C6.56708 23.4352 7.13975 23.6618 7.73687 23.6618H23.4971C24.0942 23.6618 24.6669 23.4352 25.0891 23.0318C25.5114 22.6284 25.7486 22.0812 25.7486 21.5107V6.45323C25.7486 5.88273 25.5114 5.33559 25.0891 4.93219C24.6669 4.52878 24.0942 4.30215 23.4971 4.30215ZM21.2456 19.3597H9.98834V8.6043H21.2456V19.3597Z" fill="#2CA0F3"/>
<path d="M48.2632 4.30215H32.5029C31.9058 4.30215 31.3331 4.52878 30.9109 4.93219C30.4887 5.33559 30.2515 5.88273 30.2515 6.45323V21.5107C30.2515 22.0812 30.4887 22.6284 30.9109 23.0318C31.3331 23.4352 31.9058 23.6618 32.5029 23.6618H48.2632C48.8603 23.6618 49.433 23.4352 49.8552 23.0318C50.2774 22.6284 50.5146 22.0812 50.5146 21.5107V6.45323C50.5146 5.88273 50.2774 5.33559 49.8552 4.93219C49.433 4.52878 48.8603 4.30215 48.2632 4.30215ZM46.0117 19.3597H34.7544V8.6043H46.0117V19.3597Z" fill="#2CA0F3"/>
<path d="M23.4971 27.9639H7.73687C7.13975 27.9639 6.56708 28.1906 6.14485 28.594C5.72262 28.9974 5.48541 29.5445 5.48541 30.115V45.1725C5.48541 45.743 5.72262 46.2901 6.14485 46.6935C6.56708 47.0969 7.13975 47.3236 7.73687 47.3236H23.4971C24.0942 47.3236 24.6669 47.0969 25.0891 46.6935C25.5114 46.2901 25.7486 45.743 25.7486 45.1725V30.115C25.7486 29.5445 25.5114 28.9974 25.0891 28.594C24.6669 28.1906 24.0942 27.9639 23.4971 27.9639ZM21.2456 43.0214H9.98834V32.2661H21.2456V43.0214Z" fill="#2CA0F3"/>
<path d="M48.2632 27.9639H32.5029C31.9058 27.9639 31.3331 28.1906 30.9109 28.594C30.4887 28.9974 30.2515 29.5445 30.2515 30.115V45.1725C30.2515 45.743 30.4887 46.2901 30.9109 46.6935C31.3331 47.0969 31.9058 47.3236 32.5029 47.3236H48.2632C48.8603 47.3236 49.433 47.0969 49.8552 46.6935C50.2774 46.2901 50.5146 45.743 50.5146 45.1725V30.115C50.5146 29.5445 50.2774 28.9974 49.8552 28.594C49.433 28.1906 48.8603 27.9639 48.2632 27.9639ZM46.0117 43.0214H34.7544V32.2661H46.0117V43.0214Z" fill="#2CA0F3"/>
</svg>
