<svg width="36" height="36" viewBox="0 0 36 36" fill="none" xmlns="http://www.w3.org/2000/svg">
<path d="M10.1263 15.7571H12.3762C14.0075 15.9934 15.515 14.8571 15.7512 13.2259C15.785 12.9446 15.785 12.6634 15.7512 12.3821V10.1321C15.9875 8.5009 14.8512 6.99341 13.22 6.75716C12.9387 6.72341 12.6575 6.72341 12.3762 6.75716H10.1263C8.49503 6.52091 6.98755 7.65716 6.7513 9.2884C6.71755 9.56965 6.71755 9.8509 6.7513 10.1321V12.3821C6.51505 14.0134 7.65129 15.5209 9.28252 15.7571C9.56377 15.7909 9.84502 15.7909 10.1263 15.7571Z" fill="#2CA0F3"/>
<path d="M23.6263 15.7571H25.8762C27.5075 15.9934 29.015 14.8571 29.2512 13.2259C29.285 12.9446 29.285 12.6634 29.2512 12.3821V10.1321C29.4875 8.5009 28.3512 6.99341 26.72 6.75716C26.4387 6.72341 26.1575 6.72341 25.8762 6.75716H23.6263C21.995 6.52091 20.4875 7.65716 20.2513 9.2884C20.2175 9.56965 20.2175 9.8509 20.2513 10.1321V12.3821C20.0151 14.0134 21.1513 15.5209 22.7825 15.7571C23.0638 15.7909 23.345 15.7909 23.6263 15.7571Z" fill="#2CA0F3"/>
<path d="M23.6263 29.2572H25.8762C27.5075 29.4935 29.015 28.3572 29.2512 26.7259C29.285 26.4447 29.285 26.1634 29.2512 25.8822V23.6322C29.4875 22.0009 28.3512 20.4934 26.72 20.2572C26.4387 20.2234 26.1575 20.2234 25.8762 20.2572H23.6263C21.995 20.0209 20.4875 21.1572 20.2513 22.7884C20.2175 23.0697 20.2175 23.3509 20.2513 23.6322V25.8822C20.0151 27.5134 21.1513 29.021 22.7825 29.2572C23.0638 29.291 23.345 29.291 23.6263 29.2572Z" fill="#2CA0F3"/>
<path d="M10.1263 29.2572H12.3762C14.0075 29.4935 15.515 28.3572 15.7512 26.7259C15.785 26.4447 15.785 26.1634 15.7512 25.8822V23.6322C15.9875 22.0009 14.8512 20.4934 13.22 20.2572C12.9387 20.2234 12.6575 20.2234 12.3762 20.2572H10.1263C8.49503 20.0209 6.98755 21.1572 6.7513 22.7884C6.71755 23.0697 6.71755 23.3509 6.7513 23.6322V25.8822C6.51505 27.5134 7.65129 29.021 9.28252 29.2572C9.56377 29.291 9.84502 29.291 10.1263 29.2572Z" fill="#2CA0F3"/>
</svg>
