<svg width="56" height="53" viewBox="0 0 56 53" fill="none" xmlns="http://www.w3.org/2000/svg">
<g clip-path="url(#clip0_5_6)">
<path d="M13.44 0.662537C9.975 0.662537 7.44187 1.07393 5.705 2.46944C3.96813 3.86494 3.36 6.06307 3.36 8.92265V13.0527H2.24C1.015 13.0527 0 13.9884 0 15.1177V23.3778C0 24.5072 1.015 25.4429 2.24 25.4429H3.36V42.9956C3.36 44.258 3.78875 45.3188 4.48 46.1254V49.1907C4.48 50.8887 5.99813 52.2882 7.84 52.2882H12.32C14.1619 52.2882 15.68 50.8887 15.68 49.1907V48.1582H40.32V49.1907C40.32 50.8887 41.8381 52.2882 43.68 52.2882H48.16C50.0019 52.2882 51.52 50.8887 51.52 49.1907V46.1254C52.2113 45.3188 52.64 44.258 52.64 42.9956V25.4429H53.76C54.985 25.4429 56 24.5072 56 23.3778V15.1177C56 13.9884 54.985 13.0527 53.76 13.0527H52.64V9.95516C52.64 7.22465 52.4038 4.99022 51.205 3.27609C50.0063 1.56195 47.81 0.662537 44.8 0.662537H13.44ZM13.44 2.72757H44.8C47.39 2.72757 48.5538 3.28819 49.315 4.37313C50.0763 5.45808 50.4 7.35775 50.4 9.95516V42.9956C50.4 44.4274 49.9538 44.9921 49.035 45.4478C48.1163 45.9036 46.5763 46.0932 44.8 46.0932H11.2C9.42375 46.0932 7.88375 45.9036 6.965 45.4478C6.04625 44.9921 5.6 44.4274 5.6 42.9956V8.92265C5.6 6.32523 6.11187 4.90552 7.175 4.05047C8.23813 3.19542 10.185 2.72757 13.44 2.72757ZM16.8 3.76008C15.575 3.76008 14.56 4.6958 14.56 5.82511V7.89014C14.56 9.01945 15.575 9.95516 16.8 9.95516H40.32C41.545 9.95516 42.56 9.01945 42.56 7.89014V5.82511C42.56 4.6958 41.545 3.76008 40.32 3.76008H16.8ZM16.8 5.82511H40.32V7.89014H16.8V5.82511ZM12.32 10.9877C11.0119 10.9877 9.8175 11.2942 8.995 12.0525C8.1725 12.8107 7.84 13.9118 7.84 15.1177V27.5079C7.84 28.7139 8.1725 29.8149 8.995 30.5732C9.8175 31.3314 11.0119 31.638 12.32 31.638L43.68 31.5734C44.5944 31.5734 45.5788 31.2508 46.48 30.6054C47.3813 29.9601 48.16 28.8752 48.16 27.5079V15.1177C48.16 13.9118 47.8275 12.8107 47.005 12.0525C46.1825 11.2942 44.9881 10.9877 43.68 10.9877H12.32ZM12.32 13.0527H43.68C44.6119 13.0527 45.0975 13.2624 45.395 13.5367C45.6925 13.811 45.92 14.2587 45.92 15.1177V27.5079C45.92 28.2057 45.6006 28.613 45.115 28.9599C44.6294 29.3067 43.9381 29.5084 43.68 29.5084L12.32 29.5729C11.3881 29.5729 10.9025 29.3632 10.605 29.0889C10.3075 28.8147 10.08 28.367 10.08 27.5079V15.1177C10.08 14.2587 10.3075 13.811 10.605 13.5367C10.9025 13.2624 11.3881 13.0527 12.32 13.0527ZM2.24 15.1177H3.36V23.3778H2.24V15.1177ZM52.64 15.1177H53.76V23.3778H52.64V15.1177ZM12.88 34.7355C10.1106 34.7355 7.84 36.8288 7.84 39.3818C7.84 41.9349 10.1106 44.0281 12.88 44.0281C15.6494 44.0281 17.92 41.9349 17.92 39.3818C17.92 36.8288 15.6494 34.7355 12.88 34.7355ZM43.12 34.7355C40.3506 34.7355 38.08 36.8288 38.08 39.3818C38.08 41.9349 40.3506 44.0281 43.12 44.0281C45.8894 44.0281 48.16 41.9349 48.16 39.3818C48.16 36.8288 45.8894 34.7355 43.12 34.7355ZM12.88 36.8005C14.4375 36.8005 15.68 37.946 15.68 39.3818C15.68 40.8177 14.4375 41.9631 12.88 41.9631C11.3225 41.9631 10.08 40.8177 10.08 39.3818C10.08 37.946 11.3225 36.8005 12.88 36.8005ZM43.12 36.8005C44.6775 36.8005 45.92 37.946 45.92 39.3818C45.92 40.8177 44.6775 41.9631 43.12 41.9631C41.5625 41.9631 40.32 40.8177 40.32 39.3818C40.32 37.946 41.5625 36.8005 43.12 36.8005ZM6.72 47.5774C8.06313 48.0453 9.59437 48.1582 11.2 48.1582H13.44V49.1907C13.44 49.7715 12.95 50.2232 12.32 50.2232H7.84C7.21 50.2232 6.72 49.7715 6.72 49.1907V47.5774ZM49.28 47.5774V49.1907C49.28 49.7715 48.79 50.2232 48.16 50.2232H43.68C43.05 50.2232 42.56 49.7715 42.56 49.1907V48.1582H44.8C46.4056 48.1582 47.9369 48.0453 49.28 47.5774Z" fill="#2CA0F3"/>
</g>
<defs>
<clipPath id="clip0_5_6">
<rect width="56" height="51.6257" fill="white" transform="translate(0 0.662537)"/>
</clipPath>
</defs>
</svg>
