<svg width="54" height="48" viewBox="0 0 54 48" fill="none" xmlns="http://www.w3.org/2000/svg">
<path d="M23.133 32.285L28.3975 29.1431L26.4628 26.1384C27.4545 25.1756 28.2915 24.0561 28.9328 22.8136L32.5148 23.6206L33.923 17.8096L30.3426 17.0026C30.3396 15.6304 30.1098 14.2758 29.6558 12.9752L32.7853 11.1065L29.5196 6.03971L26.3914 7.90714C25.3834 6.94213 24.2247 6.13803 22.948 5.5301L23.7873 2.08011L17.7549 0.71933L16.9191 4.15897C15.4594 4.16193 14.0488 4.39431 12.7276 4.81644L10.793 1.8152L5.53025 4.95962L7.46336 7.95938C6.47173 8.92292 5.63389 10.0415 4.99259 11.2839L1.41477 10.4757L0.00012207 16.2867L3.58281 17.0964C3.58434 18.4686 3.81491 19.8232 4.26966 21.1216L1.13942 22.9898L4.40273 28.0608L7.53451 26.1921C8.54124 27.1561 9.69845 27.9605 10.9741 28.5706L10.1348 32.0211L16.1677 33.3816L17.0056 29.9383C18.4645 29.9353 19.8758 29.7022 21.1971 29.2798L23.133 32.285ZM9.96126 15.4708C10.7282 12.3217 13.6028 10.1215 16.9531 10.1215C17.5046 10.1215 18.0604 10.1827 18.6042 10.3051C20.4754 10.726 22.0613 11.8266 23.0739 13.3958C24.0873 14.9661 24.4036 16.8246 23.9647 18.6265C23.1977 21.7749 20.3216 23.9752 16.9713 23.9752C16.4201 23.9752 15.8655 23.9126 15.3202 23.7904C13.4505 23.3717 11.8647 22.2704 10.8505 20.7002C9.8374 19.129 9.52264 17.2712 9.96126 15.4708ZM44.0728 36.1362L45.437 35.322L42.991 31.5174L41.6219 32.3333C41.2348 32.0041 40.8158 31.7126 40.3621 31.4592L40.7299 29.9533L36.2054 28.9307L35.8426 30.4238C35.3131 30.4546 34.7987 30.5359 34.2966 30.6643L33.4585 29.3651L29.5107 31.7249L30.3367 33.0036C29.9933 33.3821 29.6985 33.8015 29.4321 34.2444L27.8895 33.8994L26.8278 38.2545L28.3888 38.6057C28.4221 39.1066 28.5037 39.5963 28.6386 40.0825L27.2789 40.8955L29.7292 44.6971L31.0876 43.8844C31.4809 44.2181 31.9014 44.5076 32.352 44.7582L31.9858 46.2614L36.5102 47.2814L36.8716 45.7898C37.401 45.7575 37.9154 45.6791 38.4175 45.5507L39.2553 46.8514L43.2034 44.4933L42.3774 43.2114C42.7239 42.8329 43.0187 42.4135 43.2818 41.9706L44.8246 42.3171L45.8864 37.9605L44.3238 37.6094C44.289 37.1049 44.2074 36.6153 44.0728 36.1362ZM39.6453 38.8499C39.2262 40.5687 37.4082 41.6786 35.5884 41.2705C34.714 41.0709 33.9668 40.5569 33.4933 39.8198C33.0169 39.0857 32.8715 38.2146 33.0742 37.3669C33.4342 35.8885 34.7852 34.8528 36.3534 34.8528C36.6136 34.8528 36.8705 34.8851 37.1249 34.9403C38.9406 35.357 40.0689 37.1049 39.6453 38.8499ZM51.1713 21.574L53.2918 22.0511L53.9999 19.1475L51.8853 18.6711C51.9004 17.8451 51.7597 17.0267 51.4707 16.2509L53.3194 15.1455L51.6842 12.6117L49.837 13.7152C49.2413 13.1245 48.5422 12.6395 47.7678 12.2847L48.264 10.2492L45.2479 9.56757L44.7547 11.5986C44.7182 11.5986 44.679 11.593 44.6414 11.593C43.7987 11.593 42.9864 11.7315 42.2287 11.9885L41.0955 10.2238L38.4623 11.7938L39.6085 13.5782C39.0038 14.1462 38.4984 14.8125 38.1278 15.5693L36.0056 15.0915L35.3008 17.9959L37.4123 18.4715C37.3972 19.298 37.5377 20.1152 37.8266 20.8924L35.9813 21.9964L37.6165 24.5287L39.4603 23.4269C40.0578 24.0174 40.7552 24.5033 41.5296 24.8579L41.0364 26.8944L44.0495 27.5763L44.5454 25.5428C44.5833 25.5428 44.6212 25.5484 44.6575 25.5484C45.4984 25.5484 46.3094 25.4099 47.0686 25.1537L48.2046 26.9205L50.8348 25.3444L49.6884 23.5637C50.2941 22.9984 50.7977 22.3298 51.1713 21.574ZM40.6104 17.6615C41.0551 15.8438 42.7098 14.576 44.6432 14.576C44.9623 14.576 45.2829 14.6117 45.5962 14.6817C46.6761 14.9264 47.5897 15.5585 48.1734 16.4644C48.7574 17.3697 48.9419 18.4417 48.6878 19.4816C48.1734 21.5952 45.9317 22.9644 43.7025 22.4553C42.6254 22.212 41.709 21.5785 41.125 20.6731C40.5407 19.7677 40.3593 18.698 40.6104 17.6615Z" fill="#2CA0F3" stroke="#2CA0F3" stroke-width="0.0719997"/>
</svg>
