<svg width="56" height="53" viewBox="0 0 56 53" fill="none" xmlns="http://www.w3.org/2000/svg">
<g clip-path="url(#clip0_440_3331)">
<path d="M52.3158 13.894H3.68421C2.19233 13.894 0.982452 15.05 0.982452 16.4753V37.1256C0.982452 38.551 2.19233 39.7069 3.68421 39.7069H52.3158C53.8077 39.7069 55.0175 38.551 55.0175 37.1256V16.4753C55.0175 15.05 53.8077 13.894 52.3158 13.894ZM26.6491 34.5443C26.6491 34.9009 26.3469 35.1896 25.9737 35.1896H7.0614C6.68822 35.1896 6.38596 34.9009 6.38596 34.5443V33.899C6.38596 33.5425 6.68822 33.2537 7.0614 33.2537H25.9737C26.3469 33.2537 26.6491 33.5425 26.6491 33.899V34.5443ZM7.0614 29.3818V28.0911C7.0614 27.7346 7.36366 27.4458 7.73684 27.4458H9.08772C9.4609 27.4458 9.76315 27.7346 9.76315 28.0911V29.3818C9.76315 29.7383 9.4609 30.0271 9.08772 30.0271H7.73684C7.36366 30.0271 7.0614 29.7383 7.0614 29.3818ZM12.4649 29.3818V28.0911C12.4649 27.7346 12.7672 27.4458 13.1403 27.4458H14.4912C14.8644 27.4458 15.1667 27.7346 15.1667 28.0911V29.3818C15.1667 29.7383 14.8644 30.0271 14.4912 30.0271H13.1403C12.7672 30.0271 12.4649 29.7383 12.4649 29.3818ZM17.8684 29.3818V28.0911C17.8684 27.7346 18.1707 27.4458 18.5439 27.4458H19.8947C20.2679 27.4458 20.5702 27.7346 20.5702 28.0911V29.3818C20.5702 29.7383 20.2679 30.0271 19.8947 30.0271H18.5439C18.1707 30.0271 17.8684 29.7383 17.8684 29.3818ZM23.2719 29.3818V28.0911C23.2719 27.7346 23.5742 27.4458 23.9474 27.4458H25.2982C25.6714 27.4458 25.9737 27.7346 25.9737 28.0911V29.3818C25.9737 29.7383 25.6714 30.0271 25.2982 30.0271H23.9474C23.5742 30.0271 23.2719 29.7383 23.2719 29.3818ZM26.6491 24.2192C26.6491 24.9323 26.0446 25.5098 25.2982 25.5098H7.73684C6.99048 25.5098 6.38596 24.9323 6.38596 24.2192V20.3473C6.38596 19.6342 6.99048 19.0566 7.73684 19.0566H25.2982C26.0446 19.0566 26.6491 19.6342 26.6491 20.3473V24.2192ZM49.614 34.5443C49.614 34.9009 49.3118 35.1896 48.9386 35.1896H30.0263C29.6531 35.1896 29.3509 34.9009 29.3509 34.5443V33.899C29.3509 33.5425 29.6531 33.2537 30.0263 33.2537H48.9386C49.3118 33.2537 49.614 33.5425 49.614 33.899V34.5443Z" fill="#2CA0F3" stroke="#2CA0F3" stroke-width="0.00069"/>
</g>
<defs>
<clipPath id="clip0_440_3331">
<rect width="54.0351" height="51.6257" fill="white" transform="translate(0.982452 0.987549)"/>
</clipPath>
</defs>
</svg>
